<svg xmlns="http://www.w3.org/2000/svg" version="1.1" xmlns:xlink="http://www.w3.org/1999/xlink" xmlns:svgjs="http://svgjs.dev/svgjs" width="1000" height="353" viewBox="0 0 1000 353"><g transform="matrix(1,0,0,1,-0.6060490338156796,0.03816634010124176)"><svg viewBox="0 0 396 140" data-background-color="#333366" preserveAspectRatio="xMidYMid meet" height="353" width="1000" xmlns="http://www.w3.org/2000/svg" xmlns:xlink="http://www.w3.org/1999/xlink"><g id="tight-bounds" transform="matrix(1,0,0,1,0.2399954173910146,-0.015136792108137342)"><svg viewBox="0 0 395.52 140.03027358421625" height="140.03027358421625" width="395.52"><g><svg viewBox="0 0 690.4042178354864 244.43135999999998" height="140.03027358421625" width="395.52"><g transform="matrix(1,0,0,1,294.8842178354865,79.47278547833196)"><svg viewBox="0 0 395.52 85.48578904333606" height="85.48578904333606" width="395.52"><g id="textblocktransform"><svg viewBox="0 0 395.52 85.48578904333606" height="85.48578904333606" width="395.52" id="textblock"><g><svg viewBox="0 0 395.52 85.48578904333606" height="85.48578904333606" width="395.52"><g transform="matrix(1,0,0,1,0,0)"><svg width="395.52" viewBox="2.8499999046325684 -32.45000076293945 183.42999267578125 39.650001525878906" height="85.48578904333606" data-palette-color="#ffffff"><path d="M10.95 0.6Q8.85 0.6 7.1 0.23 5.35-0.15 4.23-0.6 3.1-1.05 3.1-1.1L3.1-1.1 2.85-1.6Q2.9-1.9 3.05-3.1 3.2-4.3 3.33-6.23 3.45-8.15 3.45-10.3L3.45-10.3 5.7-10.55Q5.7-6.8 6.2-5 6.7-3.2 8.05-2.53 9.4-1.85 12.2-1.85L12.2-1.85Q15.35-1.85 17.25-3.33 19.15-4.8 19.15-7.35L19.15-7.35Q19.15-8.85 18.13-10.05 17.1-11.25 15.7-12.1 14.3-12.95 11.55-14.4L11.55-14.4Q8.95-15.75 7.3-16.88 5.65-18 4.53-19.55 3.4-21.1 3.4-23.15L3.4-23.15Q3.4-25.75 4.93-27.88 6.45-30 9.08-31.23 11.7-32.45 14.9-32.45L14.9-32.45Q16.9-32.45 18.6-32.18 20.3-31.9 21.3-31.6 22.3-31.3 22.55-31.2L22.55-31.2 22.7-30.9Q22.65-30.6 22.45-29.5 22.25-28.4 22-26.45 21.75-24.5 21.6-22.45L21.6-22.45 19.65-22.25 19.35-22.5Q19.4-22.7 19.45-23.43 19.5-24.15 19.5-25.1L19.5-25.1Q19.5-27.75 18.2-28.75 16.9-29.75 13.55-29.75L13.55-29.75Q10.8-29.75 9.03-28.38 7.25-27 7.25-24.95L7.25-24.95Q7.25-22.95 8.97-21.48 10.7-20 14.05-18.25L14.05-18.25Q17.3-16.6 19-15.53 20.7-14.45 22-12.85 23.3-11.25 23.3-9.15L23.3-9.15Q23.3-6.35 21.73-4.13 20.15-1.9 17.35-0.65 14.55 0.6 10.95 0.6L10.95 0.6ZM33.65-27Q33.65-28.6 33.27-29.15 32.9-29.7 31.8-29.7L31.8-29.7Q31.3-29.7 30.8-29.65 30.3-29.6 30.1-29.6L30.1-29.6 30-29.8 30.35-32Q30.95-31.95 32.6-31.9 34.25-31.85 35.9-31.85L35.9-31.85Q37.25-31.85 38.97-32.02 40.7-32.2 41.25-32.3L41.25-32.3 41.05-30.05Q39.2-29.75 38.5-29.13 37.8-28.5 37.75-27.05L37.75-27.05 37.15-5.6Q37.1-3.6 37.55-2.9 38-2.2 39.35-2.2L39.35-2.2Q40.1-2.2 40.75-2.25 41.4-2.3 41.6-2.35L41.6-2.35 41.7-2.15 41.25 0.15Q40.6 0.1 38.8 0.05 37 0 35.1 0L35.1 0 29.35 0.05 29.85-2.2Q31.45-2.35 32.22-2.7 33-3.05 33.3-3.8 33.6-4.55 33.6-6L33.6-6 33.65-27ZM38.65-16.45L47.6-25.75Q49.15-27.3 49.15-28.35L49.15-28.35Q49.15-29.65 46-29.85L46-29.85 45.9-30.05 46.25-32.2Q46.85-32.15 48.72-32 50.6-31.85 51.75-31.85L51.75-31.85Q52.95-31.85 54.42-31.93 55.9-32 56.35-32.05L56.35-32.05 56.55-31.7 56.2-29.65Q54.9-29.4 53.8-28.6 52.7-27.8 50.45-25.45L50.45-25.45 42.4-17 50.8-6.05Q52.6-3.7 54.02-2.75 55.45-1.8 57.2-1.8L57.2-1.8 57.4-1.6 57.1 0.1Q56.55 0.2 54.92 0.45 53.3 0.7 52.95 0.7L52.95 0.7Q51.75 0.7 50.3-0.43 48.85-1.55 47.35-3.6L47.35-3.6 38.6-15.75 38.65-16.45ZM72.84 0.6Q68.8 0.6 65.65-1.35 62.5-3.3 60.75-6.83 59-10.35 59-14.85L59-14.85Q59-19.75 61.17-23.78 63.35-27.8 67.12-30.13 70.9-32.45 75.45-32.45L75.45-32.45Q79.59-32.45 82.8-30.5 86-28.55 87.8-25.05 89.59-21.55 89.59-17.05L89.59-17.05Q89.59-12.15 87.37-8.1 85.15-4.05 81.32-1.73 77.5 0.6 72.84 0.6L72.84 0.6ZM74.4-1.95Q77.55-1.95 80-3.6 82.45-5.25 83.8-8.2 85.15-11.15 85.15-14.95L85.15-14.95Q85.15-19.2 83.7-22.48 82.25-25.75 79.67-27.6 77.09-29.45 73.75-29.45L73.75-29.45Q70.7-29.45 68.32-27.8 65.95-26.15 64.62-23.2 63.3-20.25 63.3-16.45L63.3-16.45Q63.3-12.2 64.7-8.93 66.09-5.65 68.62-3.8 71.15-1.95 74.4-1.95L74.4-1.95ZM107.44 0.6Q106.69 0.5 104.27 0.25 101.84 0 100.24 0L100.24 0Q98.69 0 96.87 0.25 95.04 0.5 94.49 0.6L94.49 0.6 94.79-1.7Q97.09-2.15 97.89-3.03 98.69-3.9 98.69-6L98.69-6 98.74-27Q98.74-28.6 98.37-29.15 97.99-29.7 96.89-29.7L96.89-29.7Q96.39-29.7 95.89-29.65 95.39-29.6 95.19-29.6L95.19-29.6 95.09-29.8 95.44-32Q95.99-31.95 97.54-31.9 99.09-31.85 100.69-31.85L100.69-31.85Q102.84-31.85 105.14-31.93 107.44-32 108.29-32.05L108.29-32.05Q113.09-32.05 116.84-30.18 120.59-28.3 122.67-24.9 124.74-21.5 124.74-17.1L124.74-17.1Q124.74-12.2 122.44-8.15 120.14-4.1 116.19-1.75 112.24 0.6 107.44 0.6L107.44 0.6ZM104.84-29.6Q103.79-29.6 103.44-29.38 103.09-29.15 103.04-28.5L103.04-28.5Q102.29-9.25 102.29-6.55L102.29-6.55Q102.29-4.65 102.82-3.7 103.34-2.75 104.67-2.35 105.99-1.95 108.59-1.95L108.59-1.95Q113.99-1.95 117.09-5.68 120.19-9.4 120.19-15.9L120.19-15.9Q120.19-22.5 116.22-26.05 112.24-29.6 104.84-29.6L104.84-29.6ZM142.84 0.5L142.69 0.15 142.89-1.8Q145.44-2 146.39-2.4 147.34-2.8 147.34-3.7L147.34-3.7Q147.34-4.7 146.89-6.1L146.89-6.1 145.24-11.55Q144.04-11.6 140.04-11.6L140.04-11.6Q137.64-11.6 134.59-11.2L134.59-11.2 132.74-6Q132.29-4.65 132.29-4.05L132.29-4.05Q132.29-2.95 132.99-2.48 133.69-2 135.29-2L135.29-2 138.14-2 138.24-1.8 137.94 0.35Q137.34 0.3 135.19 0.15 133.04 0 130.99 0L130.99 0Q129.14 0 127.57 0.05 125.99 0.1 125.49 0.15L125.49 0.15 125.89-2.2Q127.29-2.35 128.14-3.18 128.99-4 129.79-6.05L129.79-6.05 139.54-31.6 142.69-32.45 143.09-32.45Q143.39-31.25 144.62-26.9 145.84-22.55 147.62-16.6 149.39-10.65 151.04-5.65L151.04-5.65Q151.64-3.8 152.64-3.05 153.64-2.3 155.84-2.1L155.84-2.1 155.94-1.9 155.59 0.15Q154.99 0.15 153.42 0.08 151.84 0 150.29 0L150.29 0Q147.89 0 145.67 0.2 143.44 0.4 142.84 0.5L142.84 0.5ZM135.49-13.65L139.89-13.65Q141.69-13.65 144.54-13.9L144.54-13.9 140.59-27 140.24-27 135.49-13.65ZM156.94 7.2L156.09 5.55 156.24 5.15Q158.29 3.9 159.41 2.53 160.54 1.15 161.01-0.78 161.49-2.7 161.49-5.75L161.49-5.75 161.54-27Q161.54-28.6 161.19-29.13 160.84-29.65 159.69-29.65L159.69-29.65Q159.09-29.65 158.36-29.58 157.64-29.5 157.34-29.45L157.34-29.45 157.24-29.65 157.59-31.85 162.99-31.85Q164.34-31.85 166.26-32.02 168.19-32.2 168.79-32.3L168.79-32.3 168.59-30.05Q167.34-29.85 166.79-29.6 166.24-29.35 166.01-28.83 165.79-28.3 165.74-27.2L165.74-27.2Q165.54-22.55 165.36-16.4 165.19-10.25 165.09-5.8L165.09-5.8Q165.04-0.7 163.11 2.38 161.19 5.45 156.94 7.2L156.94 7.2ZM173.49 0.6L173.78-1.7Q176.13-2.15 176.96-3.03 177.78-3.9 177.78-6L177.78-6 177.84-27Q177.84-28.6 177.46-29.15 177.09-29.7 175.99-29.7L175.99-29.7 173.88-29.6 173.78-29.8 174.13-32Q174.94-32 175.38-31.95L175.38-31.95 180.09-31.85Q182.34-31.85 185.84-32.3L185.84-32.3 185.63-30.05Q183.59-29.8 182.86-29.23 182.13-28.65 182.03-27.2L182.03-27.2Q181.74-21.35 181.53-14.98 181.34-8.6 181.34-5.6L181.34-5.6Q181.34-3.55 181.78-2.88 182.24-2.2 183.53-2.2L183.53-2.2Q184.38-2.2 186.19-2.35L186.19-2.35 186.28-2.15 185.84 0.15Q185.13 0.15 184.74 0.1L184.74 0.1Q181.24 0 179.28 0L179.28 0Q176.84 0 173.49 0.6L173.49 0.6Z" opacity="1" transform="matrix(1,0,0,1,0,0)" fill="#ffffff" class="wordmark-text-0" data-fill-palette-color="primary" id="text-0"></path></svg></g></svg></g></svg></g></svg></g><g><svg viewBox="0 0 244.43135999999998 244.43135999999998" height="244.43135999999998" width="244.43135999999998"><g><svg viewBox="0 0 244.43135999999998 244.43135999999998" height="244.43135999999998" width="244.43135999999998"><g transform="matrix(1,0,0,1,84.07416706265889,64.60265593644992)"><svg viewBox="0 0 76.28302587468221 115.22604812710014" height="115.22604812710014" width="76.28302587468221"><g><svg xmlns="http://www.w3.org/2000/svg" xmlns:xlink="http://www.w3.org/1999/xlink" version="1.1" x="0" y="0" viewBox="24.761856079101562 5 59.5826416015625 90" enable-background="new 0 0 100 100" xml:space="preserve" height="115.22604812710014" width="76.28302587468221" class="icon-s-0" data-fill-palette-color="accent" id="s-0"><g fill="#ffffff" data-fill-palette-color="accent"><path d="M73.76 35.603C86.875 48 91.5 66.25 65.633 82.379c3.64-4.928 5.654-9.794 6.096-14.669 0.951-10.516-5.606-19.072-12.835-26.752C48.298 29.7 47.51 18.84 56.413 6.782 54.578 22.641 64.6 26.944 73.76 35.603zM45.288 93.716c6.184-13.053 7.276-20.302-8.197-34.939-4.204-3.977-7.451-8.029-9.71-12.086-2.881 6.435-5.164 20.081 3.244 27.935C36.312 79.938 44.125 83.125 45.288 93.716zM56.709 43.014C48.183 33.954 41.999 21.253 54 5 21.497 17.692 19.625 38.125 39.151 56.597 55.603 72.158 54.75 80.75 48 95 79.875 71.5 68.709 55.764 56.709 43.014z" fill="#ffffff" data-fill-palette-color="accent"></path></g><g display="none" fill="#ffffff" data-fill-palette-color="accent"><path display="inline" d="M54 5C16.75 17.5 14.875 56.5 26.75 70.762c10.558 12.68 15.407 7.949 19.675 20.824" fill="#ffffff" data-fill-palette-color="accent"></path><line display="inline" x1="56.988" y1="5.261" x2="45.528" y2="136.262" fill="#ffffff" data-fill-palette-color="accent"></line><line display="inline" x1="54.131" y1="3.502" x2="42.67" y2="134.502" fill="#ffffff" data-fill-palette-color="accent"></line><path display="inline" d="M42.875 76" fill="#ffffff" data-fill-palette-color="accent"></path></g></svg></g></svg></g><g><path d="M26.975 91.993c-0.335 0.99-0.731 1.868-1.187 2.634-0.456 0.766-0.881 1.378-1.274 1.836-0.387 0.459-0.594 0.685-0.619 0.676v0l-0.42 0.058c-0.13-0.072-0.467-0.239-1.012-0.5-0.538-0.259-1.25-0.574-2.137-0.944-0.889-0.364-1.841-0.718-2.856-1.062v0l0.357-1.65c1.772 0.6 3.12 0.926 4.045 0.978 0.932 0.048 1.664-0.193 2.195-0.723 0.537-0.528 1.029-1.451 1.474-2.769v0c0.501-1.482 0.554-2.789 0.157-3.922-0.389-1.137-1.182-1.908-2.38-2.313v0c-0.713-0.241-1.432-0.214-2.158 0.082-0.732 0.294-1.411 0.7-2.036 1.22-0.621 0.528-1.492 1.326-2.613 2.395v0c-1.051 1.008-1.972 1.81-2.765 2.406-0.801 0.601-1.653 1.043-2.557 1.328-0.911 0.282-1.852 0.259-2.823-0.07v0c-1.224-0.414-2.215-1.15-2.975-2.208-0.76-1.058-1.217-2.302-1.373-3.733-0.16-1.439 0.015-2.912 0.525-4.419v0c0.318-0.94 0.679-1.788 1.082-2.543 0.397-0.758 0.748-1.349 1.054-1.774 0.299-0.426 0.494-0.69 0.584-0.793v0l0.244-0.034c0.137 0.074 0.447 0.246 0.932 0.516 0.485 0.27 1.169 0.617 2.051 1.042 0.88 0.431 1.791 0.845 2.733 1.241v0l-0.325 1.429-0.254 0.157c-0.086-0.057-0.295-0.156-0.627-0.297-0.332-0.14-0.722-0.286-1.17-0.438v0c-1.249-0.422-2.214-0.405-2.896 0.054-0.68 0.452-1.287 1.466-1.82 3.042v0c-0.44 1.299-0.475 2.475-0.107 3.527 0.366 1.059 1.031 1.751 1.996 2.078v0c0.94 0.318 1.897 0.189 2.872-0.388 0.969-0.579 2.133-1.517 3.493-2.814v0c1.294-1.27 2.329-2.22 3.105-2.851 0.782-0.628 1.653-1.124 2.612-1.488 0.964-0.356 1.941-0.366 2.931-0.031v0c1.318 0.446 2.378 1.219 3.179 2.319 0.795 1.098 1.263 2.406 1.404 3.923 0.147 1.519-0.067 3.126-0.641 4.822z" fill="#ffffff" data-fill-palette-color="accent"></path><path d="M30.317 45.798c-0.583-0.547-1.037-0.845-1.364-0.896-0.327-0.051-0.677 0.123-1.051 0.521v0c-0.169 0.18-0.33 0.371-0.483 0.574-0.154 0.193-0.265 0.326-0.333 0.399v0l-0.157-0.051-1.017-1.31c0.224-0.2 0.624-0.592 1.198-1.176 0.58-0.579 1.152-1.17 1.717-1.772v0c0.46-0.49 0.952-1.079 1.477-1.764 0.52-0.681 0.858-1.139 1.016-1.375v0l1.121 1.257c-0.526 0.775-0.794 1.396-0.803 1.863-0.009 0.467 0.24 0.956 0.747 1.466v0l11.369 11.28c0.71 0.703 1.269 1.09 1.676 1.162 0.412 0.076 0.848-0.131 1.309-0.621v0c0.255-0.272 0.482-0.534 0.681-0.785 0.204-0.256 0.33-0.43 0.379-0.521v0l0.157 0.051 1.027 1.416c-0.243 0.22-0.679 0.651-1.308 1.292-0.63 0.632-1.268 1.294-1.914 1.983v0l-2.909 3.16-0.971-1.418c0.488-0.637 0.801-1.156 0.939-1.556 0.138-0.4 0.121-0.781-0.05-1.143-0.167-0.367-0.515-0.798-1.045-1.294v0zM38.612 48.458l-0.492-9.622c-0.035-1.092-0.242-1.815-0.621-2.17v0c-0.471-0.442-1.278-0.126-2.421 0.946v0l-0.164-0.044-0.995-1.289c0.224-0.2 0.682-0.615 1.373-1.245 0.696-0.635 1.237-1.158 1.624-1.571v0c0.41-0.437 0.853-0.934 1.33-1.491 0.476-0.566 0.78-0.939 0.911-1.118v0l0.292 0.069 0.944 1.241c-0.354 0.553-0.573 1.165-0.655 1.837-0.082 0.671-0.081 1.818 0.005 3.441v0l0.49 8.689 10.249 1.028c1.465 0.142 2.613 0.114 3.445-0.082 0.828-0.191 1.54-0.605 2.137-1.241v0l0.212-0.007 0.768 1.035c-0.148 0.236-0.451 0.69-0.911 1.365-0.468 0.674-0.762 1.075-0.88 1.201v0c-0.41 0.437-1.065 0.727-1.964 0.868-0.9 0.142-1.976 0.136-3.23-0.017v0l-11.082-1.44z" fill="#ffffff" data-fill-palette-color="accent"></path><path d="M85.181 31.6c-1.873 0.748-3.717 0.961-5.531 0.639-1.82-0.32-3.459-1.131-4.919-2.433-1.456-1.311-2.599-3.005-3.428-5.083v0c-0.904-2.263-1.227-4.525-0.969-6.786 0.264-2.264 1.053-4.282 2.367-6.054 1.314-1.772 3.022-3.078 5.124-3.918v0c1.917-0.766 3.797-0.994 5.642-0.684 1.838 0.312 3.494 1.11 4.967 2.393 1.482 1.286 2.638 2.968 3.468 5.046v0c0.906 2.269 1.221 4.545 0.942 6.829-0.287 2.28-1.099 4.311-2.438 6.092-1.339 1.782-3.08 3.102-5.225 3.959zM85.549 29.399c1.453-0.58 2.593-1.477 3.421-2.689 0.828-1.212 1.281-2.627 1.359-4.243 0.081-1.61-0.23-3.296-0.934-5.057v0c-0.783-1.96-1.811-3.564-3.084-4.812-1.279-1.246-2.683-2.058-4.21-2.437-1.528-0.379-3.068-0.259-4.62 0.361v0c-1.41 0.563-2.51 1.444-3.3 2.641-0.797 1.2-1.228 2.606-1.295 4.217-0.069 1.605 0.248 3.285 0.949 5.041v0c0.785 1.966 1.805 3.577 3.06 4.832 1.248 1.258 2.627 2.08 4.136 2.467 1.509 0.386 3.015 0.28 4.518-0.321z" fill="#ffffff" data-fill-palette-color="accent"></path><path d="M129.987 24.944c-0.368-0.081-1.151-0.227-2.35-0.438-1.192-0.217-2.183-0.355-2.973-0.415v0c-0.77-0.058-1.615-0.059-2.534-0.002-0.912 0.051-1.506 0.093-1.782 0.126v0l0.348-1.696c1.159-0.139 1.954-0.41 2.385-0.811 0.431-0.408 0.687-1.133 0.765-2.176v0l1.211-15.622c0.06-0.797 0.008-1.338-0.157-1.625-0.165-0.286-0.52-0.45-1.065-0.491v0c-0.246-0.019-0.496-0.024-0.75-0.016-0.247 0.001-0.421-0.002-0.52-0.01v0l-0.058-0.154 0.382-1.614c0.27 0.047 0.79 0.11 1.558 0.188 0.768 0.085 1.547 0.157 2.337 0.217v0c1.069 0.081 2.175 0.148 3.32 0.2 1.145 0.046 1.927 0.072 2.348 0.078v0c2.383 0.18 4.469 0.805 6.258 1.875 1.795 1.077 3.143 2.498 4.045 4.262 0.902 1.764 1.27 3.738 1.104 5.922v0c-0.184 2.43-0.922 4.607-2.216 6.533-1.294 1.925-2.964 3.395-5.01 4.408-2.047 1.02-4.262 1.441-6.646 1.261zM129.745 2.311c-0.518-0.039-0.867-0.009-1.049 0.091-0.181 0.1-0.297 0.311-0.348 0.635v0c-1.094 9.525-1.691 14.955-1.792 16.289v0c-0.071 0.943 0.005 1.66 0.228 2.151 0.223 0.491 0.656 0.861 1.298 1.109 0.642 0.249 1.611 0.422 2.905 0.52v0c2.675 0.202 4.853-0.561 6.533-2.29 1.68-1.736 2.642-4.217 2.886-7.444v0c0.247-3.273-0.548-5.864-2.387-7.772-1.838-1.915-4.596-3.011-8.274-3.289z" fill="#ffffff" data-fill-palette-color="accent"></path><path d="M173.669 38.974l0.037-0.279 0.87-1.18c1.14 0.557 1.963 0.872 2.468 0.947 0.509 0.068 0.878-0.093 1.108-0.483v0c0.25-0.424 0.459-0.993 0.625-1.707v0l0.999-4.13c-0.497-0.324-1.602-0.992-3.316-2.004v0c-1.032-0.609-2.253-1.213-3.662-1.813v0l-3.156 2.637c-0.537 0.464-0.881 0.825-1.034 1.083v0c-0.277 0.47-0.325 0.898-0.143 1.284 0.18 0.377 0.614 0.768 1.302 1.174v0l1.832 1.081-0.016 0.165-1.006 1.273c-0.244-0.175-0.81-0.567-1.696-1.175-0.886-0.608-1.768-1.171-2.645-1.688v0c-0.791-0.467-1.532-0.889-2.222-1.265-0.687-0.382-1.143-0.624-1.369-0.727v0l1.147-1.353c0.637 0.283 1.242 0.358 1.815 0.225 0.577-0.139 1.293-0.547 2.149-1.225v0l15.965-12.727 2.355 0.648 0.258 0.152c-0.178 0.59-0.554 1.973-1.126 4.148-0.578 2.171-1.239 4.758-1.982 7.76-0.743 3.002-1.395 5.783-1.955 8.343v0c-0.209 0.944-0.196 1.701 0.038 2.272 0.241 0.575 0.808 1.184 1.704 1.829v0l-0.016 0.165-1 1.184c-0.258-0.152-0.717-0.442-1.376-0.871-0.651-0.43-1.308-0.842-1.974-1.234v0c-1.032-0.609-2.049-1.152-3.052-1.627-1.003-0.476-1.645-0.77-1.926-0.882zM174.303 27.092l2.83 1.67c0.774 0.457 1.804 0.991 3.09 1.602v0l2.432-9.917-0.224-0.132z" fill="#ffffff" data-fill-palette-color="accent"></path><path d="M194.081 61.92l0.552-1.271 0.302-0.103c1.123 0.401 2.128 0.606 3.017 0.613 0.885 0.002 1.773-0.208 2.665-0.631 0.896-0.418 1.933-1.105 3.112-2.06v0l12.336-9.966c0.621-0.503 0.977-0.904 1.07-1.202 0.093-0.298-0.041-0.669-0.402-1.114v0c-0.189-0.233-0.409-0.478-0.662-0.737-0.257-0.254-0.445-0.432-0.562-0.534v0l0.073-0.149 1.443-0.836 2.541 3.134c0.424 0.522 0.971 1.128 1.642 1.818 0.667 0.685 1.113 1.129 1.338 1.333v0l-1.397 0.94c-0.468-0.418-0.834-0.695-1.099-0.832-0.27-0.132-0.542-0.161-0.815-0.085-0.278 0.08-0.638 0.281-1.078 0.605v0c-1.857 1.378-4.003 2.997-6.436 4.859-2.433 1.862-4.523 3.471-6.269 4.827v0c-1.992 1.581-3.885 2.482-5.678 2.702-1.788 0.216-3.686-0.221-5.693-1.311z" fill="#ffffff" data-fill-palette-color="accent"></path><path d="M215.281 87.408l1.691-0.378c0.615 1.015 1.197 1.641 1.746 1.88 0.555 0.235 1.323 0.173 2.304-0.189v0l14.714-5.388c0.75-0.276 1.22-0.549 1.412-0.818 0.192-0.269 0.193-0.66 0.004-1.173v0l-0.607-1.447 0.116-0.117 1.627-0.323c0.138 0.375 0.233 0.67 0.283 0.886v0l1.15 3.323c0.387 1.05 0.983 2.352 1.79 3.906v0l-1.623 0.449c-0.467-0.921-0.897-1.5-1.29-1.739-0.393-0.238-0.939-0.257-1.638-0.056v0c-2.781 0.868-5.678 1.804-8.693 2.808-3.008 1.002-5.212 1.76-6.612 2.276v0c-0.962 0.354-1.56 0.695-1.794 1.023-0.243 0.324-0.251 0.791-0.026 1.403v0c0.145 0.394 0.41 0.998 0.796 1.814v0l-0.116 0.118-1.73 0.275c-0.12-0.325-0.202-0.586-0.245-0.782v0c-0.557-1.647-1.003-2.926-1.339-3.839v0c-0.421-1.143-1.061-2.447-1.92-3.912z" fill="#ffffff" data-fill-palette-color="accent"></path><path d="M9.892 164.329c-0.327-0.972-0.54-1.894-0.638-2.768-0.102-0.865-0.135-1.591-0.101-2.178 0.032-0.594 0.06-0.895 0.086-0.904v0l0.283-0.285c0.147-0.022 0.51-0.091 1.089-0.209 0.579-0.118 1.322-0.298 2.231-0.54 0.909-0.243 1.862-0.532 2.858-0.868v0l0.697 1.504c-1.735 0.584-2.981 1.13-3.738 1.638-0.748 0.512-1.174 1.133-1.279 1.864-0.099 0.729 0.07 1.74 0.505 3.033v0c0.491 1.458 1.225 2.51 2.202 3.158 0.979 0.654 2.058 0.782 3.238 0.385v0c0.694-0.234 1.238-0.684 1.632-1.351 0.396-0.66 0.681-1.378 0.855-2.153 0.172-0.782 0.379-1.919 0.621-3.413v0c0.219-1.416 0.461-2.593 0.728-3.533 0.26-0.938 0.663-1.786 1.208-2.546 0.537-0.764 1.281-1.306 2.234-1.627v0c1.199-0.404 2.409-0.418 3.632-0.043 1.222 0.375 2.321 1.073 3.297 2.093 0.972 1.029 1.706 2.281 2.204 3.758v0c0.312 0.928 0.537 1.804 0.674 2.629 0.139 0.831 0.217 1.5 0.234 2.007 0.016 0.507 0.023 0.828 0.019 0.964v0l-0.174 0.174c-0.147 0.022-0.492 0.071-1.035 0.148-0.535 0.082-1.273 0.215-2.216 0.399-0.941 0.19-1.899 0.411-2.875 0.662v0l-0.588-1.308 0.1-0.266c0.103-0.007 0.326-0.054 0.669-0.141 0.341-0.094 0.732-0.215 1.174-0.364v0c1.224-0.412 1.965-0.996 2.224-1.75 0.259-0.755 0.127-1.908-0.396-3.46v0c-0.427-1.268-1.095-2.209-2.005-2.823-0.914-0.606-1.844-0.749-2.79-0.431v0c-0.928 0.312-1.597 0.984-2.008 2.015-0.414 1.025-0.763 2.449-1.048 4.273v0c-0.258 1.759-0.503 3.117-0.736 4.073-0.235 0.95-0.621 1.849-1.157 2.698-0.534 0.854-1.287 1.445-2.259 1.772v0c-1.3 0.438-2.587 0.464-3.862 0.079-1.273-0.379-2.414-1.119-3.424-2.219-1.018-1.104-1.807-2.486-2.365-4.146z" fill="#ffffff" data-fill-palette-color="accent"></path><path d="M46.96 189.303c0.569-0.532 0.889-0.955 0.961-1.269 0.072-0.323-0.076-0.681-0.445-1.074v0c-0.164-0.175-0.34-0.343-0.528-0.505-0.183-0.157-0.309-0.272-0.377-0.345v0l0.062-0.153 1.344-0.917c0.186 0.228 0.544 0.645 1.075 1.251 0.531 0.606 1.072 1.204 1.622 1.792v0c0.45 0.481 0.994 0.999 1.631 1.552 0.641 0.558 1.069 0.919 1.285 1.082v0l-1.306 1.016c-0.721-0.556-1.307-0.856-1.757-0.899-0.46-0.044-0.955 0.169-1.484 0.636v0l-11.771 10.413c-0.728 0.645-1.141 1.163-1.238 1.556-0.103 0.397 0.071 0.836 0.521 1.317v0c0.25 0.267 0.492 0.506 0.726 0.717 0.238 0.215 0.398 0.352 0.481 0.411v0l-0.055 0.147-1.457 0.912c-0.199-0.252-0.589-0.703-1.171-1.353-0.581-0.66-1.19-1.33-1.827-2.01v0l-2.902-3.043 1.456-0.856c0.586 0.519 1.071 0.858 1.457 1.016 0.381 0.154 0.755 0.159 1.123 0.016 0.363-0.139 0.804-0.451 1.324-0.938v0zM43.828 197.253l9.435 0.13c1.073 0.036 1.796-0.122 2.171-0.472v0c0.462-0.432 0.204-1.244-0.775-2.435v0l0.055-0.147 1.329-0.889c0.181 0.232 0.556 0.706 1.126 1.423 0.57 0.716 1.048 1.281 1.435 1.694v0c0.4 0.428 0.861 0.891 1.381 1.388 0.516 0.502 0.858 0.825 1.028 0.967v0l-0.094 0.279-1.265 0.841c-0.52-0.38-1.107-0.633-1.762-0.758-0.65-0.13-1.771-0.202-3.363-0.217v0l-8.54-0.079-1.652 9.972c-0.236 1.424-0.285 2.546-0.147 3.365 0.137 0.829 0.497 1.554 1.079 2.177v0l-0.007 0.212-1.054 0.685c-0.225-0.163-0.653-0.493-1.281-0.989-0.629-0.497-1-0.806-1.114-0.927v0c-0.4-0.428-0.645-1.088-0.733-1.982-0.079-0.893-0.004-1.948 0.225-3.165v0l2.116-10.747z" fill="#ffffff" data-fill-palette-color="accent"></path><path d="M78.375 235.776c-1.835-0.736-3.29-1.831-4.363-3.288-1.073-1.456-1.686-3.14-1.838-5.051-0.149-1.918 0.183-3.893 0.998-5.926v0c0.892-2.225 2.194-4.052 3.908-5.481 1.713-1.429 3.636-2.326 5.769-2.691 2.133-0.364 4.228-0.134 6.286 0.691v0c1.879 0.753 3.367 1.862 4.466 3.328 1.094 1.457 1.731 3.143 1.91 5.059 0.179 1.915-0.139 3.889-0.954 5.922v0c-0.889 2.219-2.205 4.044-3.948 5.476-1.743 1.432-3.691 2.329-5.846 2.692-2.151 0.357-4.281 0.113-6.388-0.731zM80.118 234.462c1.428 0.572 2.847 0.707 4.259 0.406 1.406-0.304 2.682-1.001 3.829-2.091 1.147-1.09 2.066-2.497 2.757-4.221v0c0.77-1.922 1.125-3.756 1.065-5.502-0.061-1.746-0.506-3.273-1.338-4.581-0.834-1.302-2.007-2.257-3.521-2.864v0c-1.384-0.555-2.763-0.677-4.136-0.367-1.375 0.317-2.631 1.026-3.768 2.127-1.134 1.095-2.046 2.501-2.734 4.219v0c-0.773 1.928-1.141 3.76-1.106 5.496 0.042 1.738 0.468 3.254 1.277 4.546 0.806 1.299 1.945 2.243 3.416 2.832z" fill="#ffffff" data-fill-palette-color="accent"></path><path d="M131.159 243.731c-0.369-0.019-1.149-0.048-2.34-0.087-1.191-0.032-2.174-0.019-2.951 0.038v0c-0.757 0.056-1.572 0.177-2.447 0.362-0.88 0.192-1.452 0.321-1.713 0.387v0l0.094-1.699c1.099-0.302 1.829-0.68 2.189-1.134 0.354-0.453 0.493-1.191 0.417-2.214v0l-1.096-15.33c-0.058-0.777-0.186-1.291-0.385-1.544-0.206-0.258-0.578-0.368-1.116-0.328v0c-0.239 0.018-0.48 0.049-0.724 0.094-0.237 0.044-0.405 0.07-0.505 0.077v0l-0.081-0.144 0.131-1.622c0.267 0 0.78-0.014 1.538-0.044 0.759-0.03 1.527-0.073 2.304-0.13v0c1.049-0.078 2.13-0.178 3.242-0.301 1.12-0.116 1.884-0.203 2.294-0.26v0c2.337-0.173 4.452 0.127 6.346 0.902 1.887 0.781 3.4 1.961 4.538 3.539 1.132 1.578 1.777 3.44 1.937 5.585v0c0.177 2.384-0.223 4.603-1.199 6.658-0.97 2.048-2.375 3.718-4.216 5.009-1.834 1.284-3.92 2.013-6.257 2.186zM127.624 221.832c-0.511 0.038-0.846 0.116-1.005 0.234-0.164 0.126-0.248 0.346-0.251 0.66v0c0.329 9.396 0.542 14.751 0.64 16.065v0c0.068 0.923 0.249 1.607 0.542 2.053 0.286 0.439 0.759 0.735 1.418 0.886 0.658 0.145 1.622 0.17 2.89 0.076v0c2.629-0.195 4.63-1.254 6.003-3.178 1.373-1.924 1.942-4.467 1.708-7.627v0c-0.238-3.214-1.387-5.612-3.447-7.196-2.06-1.583-4.893-2.241-8.498-1.973z" fill="#ffffff" data-fill-palette-color="accent"></path><path d="M182.531 227.234l-0.226-0.168-0.603-1.302c1.023-0.717 1.686-1.277 1.99-1.68 0.298-0.399 0.336-0.788 0.113-1.167v0c-0.246-0.419-0.635-0.87-1.166-1.353v0l-3.066-2.832c-0.515 0.28-1.617 0.915-3.304 1.907v0c-1.004 0.59-2.101 1.347-3.289 2.269v0l0.757 3.968c0.145 0.68 0.291 1.146 0.44 1.399v0c0.273 0.465 0.618 0.71 1.035 0.735 0.407 0.023 0.947-0.163 1.618-0.557v0l1.8-1.058 0.144 0.089 0.61 1.472c-0.266 0.125-0.871 0.423-1.815 0.893-0.944 0.47-1.847 0.958-2.707 1.463v0c-0.775 0.455-1.489 0.89-2.141 1.305-0.65 0.405-1.074 0.682-1.273 0.829v0l-0.621-1.627c0.554-0.411 0.906-0.896 1.056-1.455 0.159-0.557 0.152-1.364-0.021-2.42v0l-3.321-19.745 1.675-1.703 0.25-0.146c0.423 0.431 1.429 1.407 3.019 2.929 1.593 1.527 3.498 3.323 5.714 5.387 2.217 2.064 4.292 3.945 6.225 5.644v0c0.708 0.626 1.364 0.974 1.968 1.043 0.605 0.069 1.394-0.124 2.369-0.581v0l0.145 0.089 0.535 1.423c-0.253 0.148-0.719 0.399-1.399 0.753-0.683 0.363-1.348 0.735-1.997 1.115v0c-1.01 0.594-1.958 1.209-2.843 1.845-0.888 0.63-1.445 1.042-1.671 1.237zM172.643 221.033l2.772-1.63c0.758-0.445 1.704-1.075 2.84-1.889v0l-7.346-6.803-0.224 0.132z" fill="#ffffff" data-fill-palette-color="accent"></path><path d="M215.635 206.243l-1.334-0.272-0.164-0.274c0.163-1.162 0.155-2.167-0.023-3.015-0.178-0.848-0.558-1.658-1.14-2.431-0.582-0.772-1.45-1.626-2.603-2.561v0l-12.057-9.835c-0.605-0.491-1.063-0.751-1.374-0.78-0.306-0.025-0.634 0.18-0.987 0.614v0c-0.185 0.227-0.375 0.489-0.571 0.784-0.191 0.299-0.323 0.514-0.395 0.644v0l-0.16-0.04-1.091-1.207 2.491-3.071c0.415-0.512 0.885-1.16 1.41-1.943 0.524-0.784 0.861-1.304 1.009-1.56v0l1.185 1.154c-0.309 0.529-0.499 0.937-0.568 1.224-0.079 0.287-0.054 0.552 0.075 0.794 0.13 0.251 0.396 0.553 0.797 0.904v0c1.7 1.508 3.689 3.242 5.966 5.201 2.277 1.959 4.244 3.64 5.9 5.044v0c1.917 1.59 3.161 3.221 3.733 4.894 0.572 1.673 0.539 3.584-0.099 5.732z" fill="#ffffff" data-fill-palette-color="accent"></path><path d="M232.243 169.269l-1.51-0.787c0.188-1.151 0.151-1.99-0.109-2.518-0.263-0.522-0.875-0.959-1.838-1.311v0l-14.419-5.323c-0.731-0.268-1.253-0.363-1.565-0.286-0.32 0.081-0.573 0.375-0.759 0.881v0l-0.45 1.462-0.168 0.024-1.421-0.797c0.133-0.363 0.246-0.644 0.341-0.843v0l1.26-3.208c0.378-1.032 0.757-2.385 1.136-4.061v0l1.499 0.698c-0.233 0.985-0.279 1.692-0.138 2.119 0.141 0.427 0.535 0.784 1.182 1.071v0c2.632 1.12 5.39 2.261 8.276 3.424 2.894 1.159 5.028 1.99 6.403 2.494v0c0.938 0.343 1.598 0.468 1.98 0.374 0.388-0.092 0.691-0.435 0.908-1.029v0c0.142-0.388 0.33-1.007 0.563-1.857v0l0.156-0.017 1.471 0.89c-0.117 0.319-0.221 0.564-0.312 0.736v0c-0.632 1.591-1.112 2.833-1.439 3.727v0c-0.41 1.119-0.759 2.498-1.047 4.137z" fill="#ffffff" data-fill-palette-color="accent"></path><path d="M2.921 125.362c0-5.111 4.144-9.255 9.255-9.255 5.111 0 9.255 4.144 9.255 9.255 0 5.111-4.144 9.255-9.255 9.255-5.111 0-9.255-4.144-9.255-9.255z" fill="#ffffff" data-fill-palette-color="accent"></path><path d="M222.323 125.362c0-5.111 4.144-9.255 9.255-9.255 5.111 0 9.255 4.144 9.255 9.255 0 5.111-4.144 9.255-9.255 9.255-5.111 0-9.255-4.144-9.255-9.255z" fill="#ffffff" data-fill-palette-color="accent"></path></g></svg></g></svg></g></svg></g><defs></defs></svg><rect width="395.52" height="140.03027358421625" fill="none" stroke="none" visibility="hidden"></rect></g></svg></g></svg>